<svg xmlns="http://www.w3.org/2000/svg" viewBox="0 0 100 100" width="100" height="100">
  <!-- Shield background -->
  <path d="M50 10L85 25V45C85 65 70 80 50 90C30 80 15 65 15 45V25L50 10Z" fill="#1e40af" stroke="#1e3a8a" stroke-width="2"/>
  
  <!-- Shield inner -->
  <path d="M50 15L80 28V45C80 62 67 75 50 85C33 75 20 62 20 45V28L50 15Z" fill="#3b82f6"/>
  
  <!-- Security guard figure -->
  <circle cx="50" cy="35" r="8" fill="#fbbf24"/>
  <rect x="42" y="43" width="16" height="20" fill="#fbbf24" rx="2"/>
  
  <!-- Arms -->
  <rect x="35" y="45" width="4" height="12" fill="#fbbf24" rx="2"/>
  <rect x="61" y="45" width="4" height="12" fill="#fbbf24" rx="2"/>
  
  <!-- Legs -->
  <rect x="44" y="63" width="4" height="12" fill="#fbbf24" rx="2"/>
  <rect x="52" y="63" width="4" height="12" fill="#fbbf24" rx="2"/>
  
  <!-- Badge/emblem -->
  <circle cx="50" cy="50" r="6" fill="#dc2626"/>
  <circle cx="50" cy="50" r="4" fill="#ef4444"/>
  <text x="50" y="54" text-anchor="middle" fill="white" font-size="6" font-weight="bold">S</text>
  
  <!-- Eyes -->
  <circle cx="47" cy="33" r="1.5" fill="#1f2937"/>
  <circle cx="53" cy="33" r="1.5" fill="#1f2937"/>
  
  <!-- Mouth -->
  <path d="M47 38Q50 40 53 38" stroke="#1f2937" stroke-width="1" fill="none"/>
</svg> 